<svg xmlns="http://www.w3.org/2000/svg" xmlns:ev="http://www.w3.org/2001/xml-events" xmlns:xlink="http://www.w3.org/1999/xlink" width="1287.984" height="934.544" class="st25" color-interpolation-filters="sRGB" viewBox="0 0 965.989 700.907" xml:space="preserve"><style type="text/css">.st1,.st2,.st3,.st4{stroke-linecap:round;stroke-linejoin:round}.st1{fill:#00b050;stroke:none;stroke-width:.75}.st2,.st3{stroke:#00b050;stroke-width:4.5}.st3{stroke:#00b0f0}.st4{fill:none;stroke:#7f7f7f;stroke-width:.75}.st5{fill:#000;font-family:Segoe UI;font-size:1.00001em}.st6,.st7,.st8{fill:gray;stroke:none;stroke-linecap:round;stroke-linejoin:round;stroke-width:.75}.st7,.st8{fill:#fff}.st8{visibility:hidden}.st9{fill:#000;font-family:Segoe UI;font-size:.833336em}.st10{font-size:1em}.st11,.st12,.st13{fill:#00b0f0;stroke:none;stroke-linecap:round;stroke-linejoin:round;stroke-width:.75}.st12,.st13{fill:#7f7f7f}.st13{visibility:hidden}.st14{fill:#000;font-family:Segoe UI;font-size:.666664em}.st15{stroke:#0070c0;stroke-linecap:round;stroke-linejoin:round;stroke-width:3}.st16{fill:#000;font-family:Calibri;font-size:.833336em}.st17{fill:none;stroke:none;stroke-linecap:round;stroke-linejoin:round;stroke-width:.75}.st18{stroke:#a5a5a5;stroke-width:4.5}.st18,.st19,.st20,.st21{stroke-linecap:round;stroke-linejoin:round}.st19{stroke:#a5a5a5;stroke-dasharray:3,6;stroke-width:3}.st20{stroke:#0070c0;stroke-width:4.5}.st21{fill:#fff;stroke:#000;stroke-dasharray:5.25,3.75;stroke-width:.75}.st22,.st23{stroke:#00b050}.st22{marker-end:url(#mrkr13-252);stroke-linecap:round;stroke-linejoin:round;stroke-width:3}.st23{fill:#00b050;fill-opacity:1;stroke-opacity:1;stroke-width:.54347826086957}.st24{fill:#000;font-family:Calibri;font-size:1.00001em}.st25{fill:none;fill-rule:evenodd;font-size:12px;overflow:visible;stroke-linecap:square;stroke-miterlimit:3}</style><defs id="Markers"><g id="lend13"><path stroke="none" d="M 3 1 L 0 0 L 3 -1 L 3 1"/></g><marker id="mrkr13-252" class="st23" markerUnits="strokeWidth" orient="auto" overflow="visible" refX="-5.52"><use transform="scale(-1.84,-1.84)" xlink:href="#lend13"/></marker></defs><g><title>Page-1</title><g id="shape333-1" transform="translate(524.784,-308.784)"><title>Metro curve 1.333</title><path d="M2.13 569.02 L-2.13 569.02 L-2.13 694.53 A8.5038 8.5038 -180 0 0 6.38 703.03 L56.69 703.03 L56.69 698.78 L6.38 698.78 A4.2519 4.2519 0 0 1 2.13 694.53 L2.13 569.02 Z" class="st1"/></g><g id="shape297-3" transform="translate(435.938,-432.172)"><title>Dynamic connector.297</title><path d="M0 693.82 L74.74 693.82" class="st2"/></g><g id="shape294-6" transform="translate(106.318,-498.348)"><title>Dynamic connector.294</title><path d="M0 700.91 L329.62 700.91 L329.62 760" class="st2"/></g><g id="shape295-9" transform="translate(155.291,-433.799)"><title>Dynamic connector.295</title><path d="M0 693.82 L266.57 693.82" class="st2"/></g><g id="shape296-12" transform="translate(203.472,-351.373)"><title>Dynamic connector.296</title><path d="M0 700.91 L0 696.16 L232.47 696.16 L232.47 613.02" class="st2"/></g><g id="shape293-15" transform="translate(46.3158,-448.111)"><title>Dynamic connector.293</title><path d="M0 707.86 L108.97 708.13" class="st2"/></g><g id="shape292-18" transform="translate(234.227,-594.774)"><title>Dynamic connector</title><path d="M0 693.85 L201.44 693.79" class="st3"/></g><g id="shape162-21" transform="translate(0.375,-214.391)"><title>Sheet.162</title><desc>Sign-in user (authentication)</desc><rect width="354.556" height="486.142" x="0" y="214.766" class="st4"/><text x="4" y="229.57" class="st5">Sign-in user (authentication)</text></g><g id="shape249-24" transform="translate(360.717,-214.391)"><title>Sheet.249</title><desc>Call Web APIs on behalf of signed-in user</desc><rect width="354.556" height="486.142" x="0" y="214.766" class="st4"/><text x="4" y="229.57" class="st5">Call Web APIs on behalf of signed-in user</text></g><g id="shape250-27" transform="translate(728.01,-214.391)"><title>Sheet.250</title><desc>Restrict access to users (authorization)</desc><rect width="237.605" height="486.142" x="0" y="214.766" class="st4"/><text x="4" y="229.57" class="st5">Restrict access to users (authorization)</text></g><g id="shape257-30" transform="translate(747.223,203.052) rotate(90)"><title>Metro curve 1.257</title><path d="M2.13 644.21 L-2.13 644.21 L-2.13 694.53 A8.5038 8.5038 -180 0 0 6.38 703.03 L56.69 703.03 L56.69 698.78 L6.38 698.78 A4.2519 4.2519 0 0 1 2.13 694.53 L2.13 644.21 Z" class="st1"/></g><g id="shape259-32" transform="translate(45.7293,-352.721)"><title>Metro curve 1.259</title><path d="M2.13 613.41 L-2.13 613.41 L-2.13 694.53 A8.5038 8.5038 -180 0 0 6.38 703.03 L157.32 703.03 L157.32 698.78 L6.38 698.78 A4.2519 4.2519 0 0 1 2.13 694.53 L2.13 613.41 Z" class="st1"/></g><a xlink:href="https://github.com/Azure-Samples/active-directory-aspnetcore-webapp-openidconnect-v2/blob/master/1-WebApp-OIDC/1-2-AnyOrg/README-1-1-to-1-2.md" xlink:title="Changing sign in audience from MyOrg to AnyOrg"><g id="shape261-34" transform="translate(155.291,904.236) rotate(180)"><title>Metro curve 1.261</title><path d="M2.13 644.21 L-2.13 644.21 L-2.13 694.53 A8.5038 8.5038 -180 0 0 6.38 703.03 L56.69 703.03 L56.69 698.78 L6.38 698.78 A4.2519 4.2519 0 0 1 2.13 694.53 L2.13 644.21 Z" class="st1"/></g></a><a xlink:href="https://github.com/Azure-Samples/active-directory-aspnetcore-webapp-openidconnect-v2/blob/master/1-WebApp-OIDC/1-3-AnyOrgOrPersonal/README-1-1-to-1-3.md" xlink:title="Changing sign in audience from Any-Org to AnyOrg"><g id="shape262-36" transform="translate(197.346,967.47) rotate(180)"><title>Metro curve 1.262</title><path d="M2.13 622.69 L-2.13 622.69 L-2.13 694.53 A8.5038 8.5038 -180 0 0 6.38 703.03 L40.09 703.03 L40.09 698.78 L6.38 698.78 A4.2519 4.2519 0 0 1 2.13 694.53 L2.13 622.69 Z" class="st1"/></g></a><a xlink:href="https://github.com/Azure-Samples/active-directory-aspnetcore-webapp-openidconnect-v2/blob/master/1-WebApp-OIDC/1-3-AnyOrgOrPersonal/README-1-1-to-1-3.md" xlink:title="Changing sign in audience from MyOrg to AnyOrg+Personal accounts"><g id="shape263-38" transform="translate(207.304,903.246) rotate(180)"><title>Metro curve 1.263</title><path d="M2.13 558.46 L-2.13 558.46 L-2.13 694.53 A8.5038 8.5038 -180 0 0 6.38 703.03 L99.78 703.03 L99.78 698.78 L6.38 698.78 A4.2519 4.2519 0 0 1 2.13 694.53 L2.13 558.46 Z" class="st1"/></g></a><a xlink:href="https://github.com/Azure-Samples/active-directory-aspnetcore-webapp-openidconnect-v2/tree/master/1-WebApp-OIDC/1-3-AnyOrgOrPersonal" xlink:title="1-3-AnyOrgOrPersonal"><g id="group170-40" transform="translate(-292.144,-126.038) rotate(-45)"><title>Station.170</title><g id="shape171-41"><title>Sheet.171</title><path d="M0 686.73 A14.1732 14.1732 0 0 1 28.35 686.73 A14.1732 14.1732 0 1 1 0 686.73 Z" class="st6"/></g><g id="shape172-43" transform="translate(4.25197,-4.25197)"><title>Sheet.172</title><path d="M0 690.99 A9.92126 9.92126 0 0 1 19.84 690.99 A9.92126 9.92126 0 1 1 0 690.99 Z" class="st7"/></g><g id="shape173-45" transform="translate(28.3465,0)"><title>Sheet.173</title><desc>With work or school and personal Microsoft accounts</desc><rect width="94.137" height="28.346" x="0" y="672.561" class="st8"/><text x="2.79" y="677.73" class="st9">With work or school<tspan x="17.08" class="st10" dy="1.2em"> </tspan>and personal <tspan x="5.14" class="st10" dy="1.2em">Microsoft accounts</tspan></text></g></g></a><g id="shape264-50" transform="translate(-466.958,195.985) rotate(-90)"><title>Metro curve 1.264</title><path d="M2.13 574.48 L-2.13 574.48 L-2.13 694.53 A8.5038 8.5038 -180 0 0 6.38 703.03 L100.06 703.03 L100.06 698.78 L6.38 698.78 A4.2519 4.2519 0 0 1 2.13 694.53 L2.13 574.48 Z" class="st11"/></g><a xlink:href="https://github.com/Azure-Samples/active-directory-aspnetcore-webapp-openidconnect-v2/tree/master/1-WebApp-OIDC/1-1-MyOrg" xlink:title="1-1-MyOrg"><g id="group174-52" transform="translate(-389.299,-273.013) rotate(-45)"><title>Station.174</title><g id="shape175-53"><title>Sheet.175</title><path d="M0 686.73 A14.1732 14.1732 0 0 1 28.35 686.73 A14.1732 14.1732 0 1 1 0 686.73 Z" class="st6"/></g><g id="shape176-55" transform="translate(4.25197,-4.25197)"><title>Sheet.176</title><path d="M0 690.99 A9.92126 9.92126 0 0 1 19.84 690.99 A9.92126 9.92126 0 1 1 0 690.99 Z" class="st7"/></g><g id="shape177-57" transform="translate(28.3465,0)"><title>Sheet.177</title><desc>In My Org</desc><rect width="52.838" height="28.346" x="0" y="672.561" class="st8"/><text x="2.79" y="689.73" class="st9">In My Org</text></g></g></a><g id="shape265-60" transform="translate(-466.958,254.076) rotate(-90)"><title>Metro curve 1.265</title><path d="M2.13 632.27 L-2.13 632.27 L-2.13 694.53 A8.5038 8.5038 -180 0 0 6.38 703.03 L156.47 703.03 L156.47 698.78 L6.38 698.78 A4.2519 4.2519 0 0 1 2.13 694.53 L2.13 632.27 Z" class="st11"/></g><a xlink:href="https://github.com/Azure-Samples/active-directory-aspnetcore-webapp-openidconnect-v2/tree/master/1-WebApp-OIDC/1-2-AnyOrg" xlink:title="1-2-AnyOrg"><g id="group180-62" transform="translate(-340.326,-215.551) rotate(-45)"><title>Station.180</title><g id="shape181-63"><title>Sheet.181</title><path d="M0 686.73 A14.1732 14.1732 0 0 1 28.35 686.73 A14.1732 14.1732 0 1 1 0 686.73 Z" class="st12"/></g><g id="shape182-65" transform="translate(4.25197,-4.25197)"><title>Sheet.182</title><path d="M0 690.99 A9.92126 9.92126 0 0 1 19.84 690.99 A9.92126 9.92126 0 1 1 0 690.99 Z" class="st7"/></g><g id="shape183-67" transform="translate(28.3465,0)"><title>Sheet.183</title><desc>In Any Org</desc><rect width="51.15" height="28.346" x="0" y="672.561" class="st13"/><text x="6.51" y="689.13" class="st14">In Any Org</text></g></g></a><a xlink:href="https://github.com/Azure-Samples/active-directory-aspnetcore-webapp-openidconnect-v2/tree/master/1-WebApp-OIDC/1-4-Sovereign"><g id="group187-70" transform="translate(-261.389,-376.491) rotate(-45)"><title>Station.187</title><g id="shape188-71"><title>Sheet.188</title><path d="M0 686.73 A14.1732 14.1732 0 0 1 28.35 686.73 A14.1732 14.1732 0 1 1 0 686.73 Z" class="st6"/></g><g id="shape189-73" transform="translate(4.25197,-4.25197)"><title>Sheet.189</title><path d="M0 690.78 A9.92126 10.1295 0 0 1 19.84 690.78 A9.92126 10.1295 0 1 1 0 690.78 Z" class="st7"/></g><g id="shape190-75" transform="translate(28.3465,0)"><title>Sheet.190</title><desc>Sign-in user in National clouds</desc><rect width="85.237" height="28.346" x="0" y="672.561" class="st8"/><text x="16.26" y="683.73" class="st9">Sign-in user<tspan x="2.79" class="st10" dy="1.2em">in National clouds</tspan></text></g></g></a><a xlink:href="https://github.com/Azure-Samples/active-directory-aspnetcore-webapp-openidconnect-v2/tree/master/2-WebApp-graph-user/2-1-Call-MSGraph"><g id="group271-79" transform="translate(-59.6786,-213.924) rotate(-45)"><title>Station.271</title><g id="shape272-80"><title>Sheet.272</title><path d="M0 686.73 A14.1732 14.1732 0 0 1 28.35 686.73 A14.1732 14.1732 0 1 1 0 686.73 Z" class="st6"/></g><g id="shape273-82" transform="translate(4.25197,-4.25197)"><title>Sheet.273</title><path d="M0 690.99 A9.92126 9.92126 0 0 1 19.84 690.99 A9.92126 9.92126 0 1 1 0 690.99 Z" class="st7"/></g><g id="shape274-84" transform="translate(28.3465,0)"><title>Sheet.274</title><desc>Call Microsoft Graph</desc><rect width="77.258" height="28.346" x="0" y="672.561" class="st8"/><text x="30.57" y="683.73" class="st9">Call <tspan x="2.79" class="st10" dy="1.2em">Microsoft Graph</tspan></text></g></g></a><g id="shape302-88" transform="translate(435.669,-601.894)"><title>Dynamic connector.302</title><path d="M0 700.91 L89.12 700.91 L89.12 862.13" class="st3"/></g><g id="shape303-91" transform="translate(538.958,-433.587)"><title>Dynamic connector.303</title><path d="M0 693.82 L130.38 693.82" class="st2"/></g><g id="shape304-94" transform="translate(683.512,-433.587)"><title>Dynamic connector.304</title><path d="M0 693.82 L66.63 693.82" class="st2"/></g><g id="shape318-97" transform="translate(40.7226,-441.162)"><title>Dynamic connector.318</title><path d="M0 700.91 L0 889.73 L215.56 889.73" class="st15"/></g><g id="shape319-100" transform="translate(256.283,-252.345)"><title>Dynamic connector.319</title><path d="M0 700.91 L413.06 700.91 L413.06 526.75" class="st15"/></g><a xlink:href="https://github.com/Azure-Samples/active-directory-aspnetcore-webapp-openidconnect-v2/tree/master/1-WebApp-OIDC/1-5-B2C"><g id="group208-103" transform="translate(-239.334,-27.0097) rotate(-45)"><title>Station.208</title><g id="shape209-104"><title>Sheet.209</title><path d="M0 686.73 A14.1732 14.1732 0 0 1 28.35 686.73 A14.1732 14.1732 0 1 1 0 686.73 Z" class="st12"/></g><g id="shape210-106" transform="translate(4.25197,-4.25197)"><title>Sheet.210</title><path d="M0 690.99 A9.92126 9.92126 0 0 1 19.84 690.99 A9.92126 9.92126 0 1 1 0 690.99 Z" class="st7"/></g><g id="shape211-108" transform="translate(28.3465,0)"><title>Sheet.211</title><desc>With local or social identities (B2C)</desc><rect width="85.339" height="28.346" x="0" y="672.561" class="st13"/><text x="20.69" y="677.73" class="st9">With local <tspan x="2.79" class="st10" dy="1.2em">or social identities</tspan><tspan x="30.99" class="st10" dy="1.2em">(B2C)</tspan></text></g></g></a><a xlink:href="https://github.com/Azure-Samples/active-directory-aspnetcore-webapp-openidconnect-v2/tree/master/4-WebApp-your-API"><g id="group279-113" transform="translate(173.722,-215.339) rotate(-45)"><title>Station.279</title><g id="shape280-114"><title>Sheet.280</title><path d="M0 686.73 A14.1732 14.1732 0 0 1 28.35 686.73 A14.1732 14.1732 0 1 1 0 686.73 Z" class="st12"/></g><g id="shape281-116" transform="translate(4.25197,-4.25197)"><title>Sheet.281</title><path d="M0 690.99 A9.92126 9.92126 0 0 1 19.84 690.99 A9.92126 9.92126 0 1 1 0 690.99 Z" class="st7"/></g><g id="shape282-118" transform="translate(28.3465,0)"><title>Sheet.282</title><desc>Call your own API</desc><rect width="47.013" height="28.346" x="0" y="672.561" class="st13"/><text x="4.16" y="683.73" class="st9">Call your <tspan x="5.41" class="st10" dy="1.2em">own API</tspan></text></g></g></a><g id="shape321-122" transform="translate(40.7226,-441.162)"><title>Dynamic connector.321</title><path d="M0 700.91 L0 540.24 L179.33 540.24" class="st3"/></g><a xlink:href="https://github.com/Azure-Samples/active-directory-aspnetcore-webapp-openidconnect-v2/tree/master/1-WebApp-OIDC" xlink:title="1-WebApp-OIDC"><g id="group251-125" transform="translate(-454.894,-215.827) rotate(-45)"><title>Station.251</title><g id="shape252-126"><title>Sheet.252</title><path d="M0 686.73 A14.1732 14.1732 0 0 1 28.35 686.73 A14.1732 14.1732 0 1 1 0 686.73 Z" class="st6"/></g><g id="shape253-128" transform="translate(4.25197,-4.25197)"><title>Sheet.253</title><path d="M0 690.99 A9.92126 9.92126 0 0 1 19.84 690.99 A9.92126 9.92126 0 1 1 0 690.99 Z" class="st7"/></g><g id="shape254-130" transform="translate(28.3465,0)"><title>Sheet.254</title><desc>Sign-in users</desc><rect width="56.359" height="28.346" x="0" y="672.561" class="st8"/><text x="2.55" y="689.73" class="st16">Sign-in users</text></g></g></a><a xlink:href="https://github.com/Azure-Samples/active-directory-aspnetcore-webapp-openidconnect-v2/tree/master/2-WebApp-graph-user/2-4-Sovereign-Call-MSGraph"><g id="group245-133" transform="translate(-59.9474,-376.559) rotate(-45)"><title>Station.245</title><g id="shape246-134"><title>Sheet.246</title><path d="M0 686.73 A14.1732 14.1732 0 0 1 28.35 686.73 A14.1732 14.1732 0 1 1 0 686.73 Z" class="st6"/></g><g id="shape247-136" transform="translate(4.25197,-4.25197)"><title>Sheet.247</title><path d="M0 690.99 A9.92126 9.92126 0 0 1 19.84 690.99 A9.92126 9.92126 0 1 1 0 690.99 Z" class="st7"/></g><g id="shape248-138" transform="translate(28.3465,0)"><title>Sheet.248</title><desc>Call Microsoft Graph (in National Clouds)</desc><rect width="91.105" height="28.346" x="0" y="672.561" class="st8"/><text x="3.68" y="683.73" class="st16">Call Microsoft Graph <tspan x="5.57" class="st10" dy="1.2em">(in National Clouds)</tspan></text></g></g></a><a xlink:href="https://github.com/Azure-Samples/active-directory-aspnetcore-webapp-openidconnect-v2/tree/master/3-WebApp-multi-APIs"><g id="group275-142" transform="translate(29.168,-215.339) rotate(-45)"><title>Station.275</title><g id="shape276-143"><title>Sheet.276</title><path d="M0 686.73 A14.1732 14.1732 0 0 1 28.35 686.73 A14.1732 14.1732 0 1 1 0 686.73 Z" class="st6"/></g><g id="shape277-145" transform="translate(4.25197,-4.25197)"><title>Sheet.277</title><path d="M0 690.99 A9.92126 9.92126 0 0 1 19.84 690.99 A9.92126 9.92126 0 1 1 0 690.99 Z" class="st7"/></g><g id="shape278-147" transform="translate(28.3465,0)"><title>Sheet.278</title><desc>Call several Microsoft APIs (incremental consent)</desc><rect width="124.069" height="28.346" x="0" y="672.561" class="st8"/><text x="4.16" y="683.73" class="st9">Call several Microsoft APIs <tspan x="14.41" class="st10" dy="1.2em">(incremental consent)</tspan></text></g></g></a><g id="shape322-151" transform="translate(750.143,-440.674)"><title>Dynamic connector.322</title><path d="M0 700.91 L62.82 700.91 L62.82 640.62 L108.93 640.62" class="st2"/></g><g id="shape323-154" transform="translate(750.143,-440.674)"><title>Dynamic connector.323</title><path d="M0 700.91 L63.31 700.91 L63.31 757.11 L108.93 757.11" class="st2"/></g><a xlink:href="https://github.com/Azure-Samples/active-directory-aspnetcore-webapp-openidconnect-v2/tree/master/5-WebApp-AuthZ"><g id="group283-157" transform="translate(254.527,-215.339) rotate(-45)"><title>Station.283</title><g id="shape284-158"><title>Sheet.284</title><path d="M0 686.73 A14.1732 14.1732 0 0 1 28.35 686.73 A14.1732 14.1732 0 1 1 0 686.73 Z" class="st6"/></g><g id="shape285-160" transform="translate(4.25197,-4.25197)"><title>Sheet.285</title><path d="M0 690.99 A9.92126 9.92126 0 0 1 19.84 690.99 A9.92126 9.92126 0 1 1 0 690.99 Z" class="st7"/></g><g id="shape286-162" transform="translate(28.3465,0)"><title>Sheet.286</title><desc>Authorization</desc><rect width="65.432" height="28.346" x="0" y="672.561" class="st8"/><text x="2.79" y="689.73" class="st9">Authorization</text></g></g></a><a xlink:href="https://github.com/Azure-Samples/active-directory-aspnetcore-webapp-openidconnect-v2/tree/master/5-WebApp-AuthZ/5-2-Groups"><g id="group309-165" transform="translate(363.454,-275.63) rotate(-45)"><title>Station.309</title><g id="shape310-166"><title>Sheet.310</title><path d="M0 686.73 A14.1732 14.1732 0 0 1 28.35 686.73 A14.1732 14.1732 0 1 1 0 686.73 Z" class="st6"/></g><g id="shape311-168" transform="translate(4.25197,-4.25197)"><title>Sheet.311</title><path d="M0 690.99 A9.92126 9.92126 0 0 1 19.84 690.99 A9.92126 9.92126 0 1 1 0 690.99 Z" class="st7"/></g><g id="shape312-170" transform="translate(28.3465,0)"><title>Sheet.312</title><desc>With groups</desc><rect width="60.134" height="28.346" x="0" y="672.561" class="st8"/><text x="2.79" y="689.73" class="st9">With groups</text></g></g></a><a xlink:href="https://github.com/Azure-Samples/active-directory-aspnetcore-webapp-openidconnect-v2/tree/master/5-WebApp-AuthZ/5-2-Groups"><g id="group313-173" transform="translate(363.454,-159.134) rotate(-45)"><title>Station.313</title><g id="shape314-174"><title>Sheet.314</title><path d="M0 686.73 A14.1732 14.1732 0 0 1 28.35 686.73 A14.1732 14.1732 0 1 1 0 686.73 Z" class="st6"/></g><g id="shape315-176" transform="translate(4.25197,-4.25197)"><title>Sheet.315</title><path d="M0 690.99 A9.92126 9.92126 0 0 1 19.84 690.99 A9.92126 9.92126 0 1 1 0 690.99 Z" class="st7"/></g><g id="shape316-178" transform="translate(28.3465,0)"><title>Sheet.316</title><desc>With roles</desc><rect width="50.358" height="28.346" x="0" y="672.561" class="st8"/><text x="2.79" y="689.73" class="st9">With roles</text></g></g></a><g id="shape324-181" transform="translate(1.49394,-112.72)"><title>Sheet.324</title><desc>Deployment to Azure</desc><rect width="964.12" height="87.498" x="0" y="613.409" class="st4"/><text x="4" y="628.21" class="st5">Deployment to Azure</text></g><g id="group325-184" transform="translate(86.9799,-82.6617) rotate(-45)"><title>Station.325</title><g id="shape326-185"><title>Sheet.326</title><path d="M0 686.73 A14.1732 14.1732 0 0 1 28.35 686.73 A14.1732 14.1732 0 1 1 0 686.73 Z" class="st6"/></g><g id="shape327-187" transform="translate(4.25197,-4.25197)"><title>Sheet.327</title><path d="M0 690.99 A9.92126 9.92126 0 0 1 19.84 690.99 A9.92126 9.92126 0 1 1 0 690.99 Z" class="st7"/></g><g id="shape328-189" transform="translate(28.3465,0)"><title>Sheet.328</title><desc>Token caches</desc><rect width="59.67" height="28.346" x="0" y="672.561" class="st8"/><text x="2.55" y="689.73" class="st16">Token caches</text></g></g><g id="shape331-192" transform="translate(526.084,-317.855)"><title>Sheet.331</title><desc>- in memory token cache - session token cache - SQL token cache</desc><rect width="77.772" height="95.795" x="0" y="605.112" class="st17"/><text x="4" y="618.11" class="st16">- in memory <tspan x="4" class="st10" dy="1.2em"> </tspan>token cache<tspan x="4" class="st10" dy="1.2em">-</tspan> session <tspan x="4" class="st10" dy="1.2em"> </tspan>token cache<tspan x="4" class="st10" dy="1.2em">-</tspan> SQL <tspan x="4" class="st10" dy="1.2em"> </tspan>token cache</text></g><g id="shape431-200" transform="translate(8.58055,-53.7638)"><title>Dynamic connector.431</title><path d="M0 693.82 L44.29 693.82" class="st18"/></g><g id="shape432-203" transform="translate(65.2735,-49.056)"><title>Sheet.432</title><desc>Recommended learning path</desc><rect width="92.632" height="20" x="0" y="680.907" class="st17"/><text x="4" y="687.91" class="st9">Recommended <tspan x="4" class="st10" dy="1.2em">learning path</tspan></text></g><g id="shape433-207" transform="translate(8.58055,-30.9854)"><title>Dynamic connector.433</title><path d="M0 693.82 L44.29 693.82" class="st19"/></g><g id="shape434-210" transform="translate(65.2735,-28.072)"><title>Sheet.434</title><desc>In construction</desc><rect width="85.039" height="20" x="0" y="680.907" class="st17"/><text x="4" y="693.91" class="st9">In construction</text></g><g id="shape439-213" transform="translate(422.966,-46.9824)"><title>Dynamic connector.439</title><path d="M0 693.82 L-31.71 693.82" class="st3"/></g><g id="shape440-216" transform="translate(422.966,-24.4571)"><title>Dynamic connector.440</title><path d="M0 693.82 L-31.71 693.82" class="st20"/></g><g id="shape442-219" transform="translate(422.966,-67.9891)"><title>Dynamic connector.442</title><path d="M0 693.82 L-31.71 693.82" class="st2"/></g><g id="shape443-222" transform="translate(437.068,-64.6933)"><title>Sheet.443</title><desc>Azure AD</desc><rect width="92.632" height="20" x="0" y="680.907" class="st17"/><text x="4" y="693.91" class="st9">Azure AD</text></g><g id="shape444-225" transform="translate(437.574,-45.4582)"><title>Sheet.444</title><desc>National clouds</desc><rect width="92.632" height="20" x="0" y="680.907" class="st17"/><text x="4" y="693.91" class="st9">National clouds</text></g><g id="shape445-228" transform="translate(437.068,-24.6933)"><title>Sheet.445</title><desc>B2C</desc><rect width="92.632" height="20" x="0" y="680.907" class="st17"/><text x="4" y="693.91" class="st9">B2C</text></g><g id="group452-231" transform="translate(230.876,-56.7695)"><title>Station.452</title><g id="shape453-232"><title>Sheet.453</title><path d="M0 686.73 A14.1732 14.1732 0 0 1 28.35 686.73 A14.1732 14.1732 0 1 1 0 686.73 Z" class="st6"/></g><g id="shape454-234" transform="translate(4.25197,-4.25197)"><title>Sheet.454</title><path d="M0 690.99 A9.92126 9.92126 0 0 1 19.84 690.99 A9.92126 9.92126 0 1 1 0 690.99 Z" class="st7"/></g><g id="shape455-236" transform="translate(28.3465,0)"><title>Sheet.455</title><desc>Existing chapter</desc><rect width="75.329" height="28.346" x="0" y="672.561" class="st8"/><text x="2.79" y="689.73" class="st9">Existing chapter</text></g></g><g id="group482-239" transform="translate(230.876,-20.2175)"><title>Station.482</title><g id="shape483-240"><title>Sheet.483</title><path d="M0 686.73 A14.1732 14.1732 0 0 1 28.35 686.73 A14.1732 14.1732 0 1 1 0 686.73 Z" class="st21"/></g><g id="shape484-242" transform="translate(4.25197,-4.25197)"><title>Sheet.484</title><path d="M0 690.99 A9.92126 9.92126 0 0 1 19.84 690.99 A9.92126 9.92126 0 1 1 0 690.99 Z" class="st21"/></g><g id="shape485-244" transform="translate(28.3465,0)"><title>Sheet.485</title><desc>In construction chapter</desc><text x="2.79" y="689.73" class="st9">In construction chapter</text></g></g><g id="shape487-247" transform="translate(177.653,-214.391)"><title>Dynamic connector.487</title><path d="M0 700.91 L0 777.35 L628.55 777.35" class="st22"/></g><g id="shape488-253" transform="translate(537.995,-214.391)"><title>Dynamic connector.488</title><path d="M0 700.91 L0 777.35 L268.21 777.35" class="st22"/></g><g id="shape489-258" transform="translate(815.68,-214.391)"><title>Dynamic connector.489</title><path d="M7.09 700.91 L7.09 760.79" class="st22"/></g><a xlink:href="https://github.com/Azure-Samples/active-directory-aspnetcore-webapp-openidconnect-v2/tree/master/6-Deploy-to-Azure" xlink:title="6-Deploy-to-Azure"><g id="group287-263" transform="translate(327.15,87.3819) rotate(-45)"><title>Station.287</title><g id="shape288-264"><title>Sheet.288</title><path d="M0 686.73 A14.1732 14.1732 0 0 1 28.35 686.73 A14.1732 14.1732 0 1 1 0 686.73 Z" class="st12"/></g><g id="shape289-266" transform="translate(4.25197,-4.25197)"><title>Sheet.289</title><path d="M0 690.99 A9.92126 9.92126 0 0 1 19.84 690.99 A9.92126 9.92126 0 1 1 0 690.99 Z" class="st7"/></g><g id="shape290-268" transform="translate(28.3465,0)"><title>Sheet.290</title><desc>Deployment to Azure</desc><rect width="62.448" height="28.346" x="0" y="672.561" class="st13"/><text x="4.16" y="683.73" class="st9">Deployment <tspan x="12.56" class="st10" dy="1.2em">to Azure</tspan></text></g></g></a><g id="shape490-272" transform="translate(2.91126,-0.375)"><title>Sheet.490</title><desc>Legend</desc><rect width="558.425" height="96.378" x="0" y="604.53" class="st4"/><text x="4" y="619.33" class="st24">Legend</text></g></g></svg>