<svg xmlns="http://www.w3.org/2000/svg" xmlns:ev="http://www.w3.org/2001/xml-events" xmlns:xlink="http://www.w3.org/1999/xlink" width="952.645" height="723.583" class="st11" color-interpolation-filters="sRGB" viewBox="0 0 714.484 542.687" xml:space="preserve"><style type="text/css">.st1{fill:none;stroke:#7f7f7f;stroke-linecap:round;stroke-linejoin:round;stroke-width:.75}.st2{fill:#000;font-family:Segoe UI;font-size:1.00001em}.st3{fill:#00b050}.st3,.st4,.st5,.st6{stroke:none;stroke-linecap:round;stroke-linejoin:round;stroke-width:.75}.st4{fill:gray}.st5,.st6{fill:#fff}.st6{visibility:hidden}.st7{fill:#000;font-family:Segoe UI;font-size:.833336em}.st8{font-size:1em}.st9{fill:#000;stroke:none;stroke-linecap:round;stroke-linejoin:round;stroke-width:.75}.st10{fill:#000;font-family:Calibri;font-size:.833336em}.st11{fill:none;fill-rule:evenodd;font-size:12px;overflow:visible;stroke-linecap:square;stroke-miterlimit:3}</style><g><title>Page-1</title><g id="shape159-1" transform="translate(0.375,-126.434)"><title>Sheet.159</title><desc>Sign-in user</desc><rect width="226.488" height="415.276" x="0" y="127.411" class="st1"/><text x="4" y="142.21" class="st2">Sign-in user</text></g><g id="shape157-4" transform="translate(247.434,-320.023)"><title>Metro line.157</title><rect width="42.841" height="4.252" x="0" y="538.435" class="st3"/></g><g id="shape156-6" transform="translate(135.803,-440.358) rotate(0.0828934)"><title>Metro line.156</title><rect width="121.89" height="4.252" x="0" y="538.435" class="st3"/></g><g id="shape64-8" transform="translate(-453.588,213.251) rotate(-90)"><title>Metro curve 1.64</title><path d="M2.13 483.5 L-2.13 483.5 L-2.13 536.31 A8.5038 8.5038 -180 0 0 6.38 544.81 L88.65 544.81 L88.65 540.56 L6.38 540.56 A4.2519 4.2519 0 0 1 2.13 536.31 L2.13 483.5 Z" class="st3"/></g><g id="shape76-10" transform="translate(104.415,706.632) rotate(180)"><title>Metro curve 1.76</title><path d="M2.13 514.34 L-2.13 514.34 L-2.13 536.31 A8.5038 8.5038 -180 0 0 6.38 544.81 L74.65 544.81 L74.65 540.56 L6.38 540.56 A4.2519 4.2519 0 0 1 2.13 536.31 L2.13 514.34 Z" class="st3"/></g><g id="shape83-12" transform="translate(-438.272,296.141) rotate(-90)"><title>Metro curve 1.83</title><path d="M2.13 468.04 L-2.13 468.04 L-2.13 536.31 A8.5038 8.5038 -180 0 0 6.38 544.81 L53.86 544.81 L53.86 540.56 L6.38 540.56 A4.2519 4.2519 0 0 1 2.13 536.31 L2.13 468.04 Z" class="st3"/></g><g id="shape84-14" transform="translate(247.434,-320.023)"><title>Metro line.84</title><rect width="140.521" height="4.252" x="0" y="538.435" class="st3"/></g><g id="shape75-16" transform="translate(-453.729,152.951) rotate(-90)"><title>Metro curve 1.75</title><path d="M2.13 483.5 L-2.13 483.5 L-2.13 536.31 A8.5038 8.5038 -180 0 0 6.38 544.81 L28.35 544.81 L28.35 540.56 L6.38 540.56 A4.2519 4.2519 0 0 1 2.13 536.31 L2.13 483.5 Z" class="st3"/></g><g id="group13-18" transform="translate(-358.276,-70.0382) rotate(-45)"><title>Station.13</title><g id="shape14-19"><title>Sheet.14</title><path d="M0 528.51 A14.1732 14.1732 0 0 1 28.35 528.51 A14.1732 14.1732 0 1 1 0 528.51 Z" class="st4"/></g><g id="shape15-21" transform="translate(4.25197,-4.25197)"><title>Sheet.15</title><path d="M0 532.77 A9.92126 9.92126 0 0 1 19.84 532.77 A9.92126 9.92126 0 1 1 0 532.77 Z" class="st5"/></g><g id="shape16-23" transform="translate(28.3465,0)"><title>Sheet.16</title><desc>With orgs and personal accounts</desc><rect width="85.31" height="28.346" x="0" y="514.34" class="st6"/><text x="11.46" y="525.51" class="st7">With orgs and <tspan x="2.79" class="st8" dy="1.2em">personal accounts</tspan></text></g></g><g id="group71-27" transform="translate(-354.111,-204.856) rotate(-45)"><title>Station.71</title><g id="shape72-28"><title>Sheet.72</title><path d="M0 528.51 A14.1732 14.1732 0 0 1 28.35 528.51 A14.1732 14.1732 0 1 1 0 528.51 Z" class="st4"/></g><g id="shape73-30" transform="translate(4.25197,-4.25197)"><title>Sheet.73</title><path d="M0 532.77 A9.92126 9.92126 0 0 1 19.84 532.77 A9.92126 9.92126 0 1 1 0 532.77 Z" class="st5"/></g><g id="shape74-32" transform="translate(28.3465,0)"><title>Sheet.74</title><desc>In My Org</desc><rect width="52.838" height="28.346" x="0" y="514.34" class="st6"/><text x="2.79" y="531.51" class="st7">In My Org</text></g></g><g id="shape85-35" transform="translate(358.958,643.065) rotate(180)"><title>Metro curve 1</title><path d="M2.13 442.62 L-2.13 442.62 L-2.13 536.31 A8.5038 8.5038 -180 0 0 6.38 544.81 L102.05 544.81 L102.05 540.56 L6.38 540.56 A4.2519 4.2519 0 0 1 2.13 536.31 L2.13 442.62 Z" class="st3"/></g><g id="shape86-37" transform="translate(20.1199,-318.522) rotate(-0.379654)"><title>Metro line</title><rect width="144.18" height="4.252" x="0" y="538.435" class="st3"/></g><g id="group9-39" transform="translate(-353.829,-146.197) rotate(-45)"><title>Station.9</title><g id="shape10-40"><title>Sheet.10</title><path d="M0 528.51 A14.1732 14.1732 0 0 1 28.35 528.51 A14.1732 14.1732 0 1 1 0 528.51 Z" class="st4"/></g><g id="shape11-42" transform="translate(4.25197,-4.25197)"><title>Sheet.11</title><path d="M0 532.77 A9.92126 9.92126 0 0 1 19.84 532.77 A9.92126 9.92126 0 1 1 0 532.77 Z" class="st5"/></g><g id="shape12-44" transform="translate(28.3465,0)"><title>Sheet.12</title><desc>In Any Org</desc><rect width="53.229" height="28.346" x="0" y="514.34" class="st6"/><text x="2.79" y="531.51" class="st7">In Any Org</text></g></g><g id="shape88-47" transform="translate(104.415,-321.615)"><title>Metro curve 1.88</title><path d="M2.13 502.6 L-2.13 502.6 L-2.13 536.31 A8.5038 8.5038 -180 0 0 6.38 544.81 L63.46 544.81 L63.46 540.56 L6.38 540.56 A4.2519 4.2519 0 0 1 2.13 536.31 L2.13 502.6 Z" class="st3"/></g><g id="shape89-49" transform="translate(647.102,221.023) rotate(90)"><title>Metro curve 1.89</title><path d="M2.13 390.19 L-2.13 390.19 L-2.13 536.31 A8.5038 8.5038 -180 0 0 6.38 544.81 L25.51 544.81 L25.51 540.56 L6.38 540.56 A4.2519 4.2519 0 0 1 2.13 536.31 L2.13 390.19 Z" class="st3"/></g><g id="shape90-51" transform="translate(631.786,100.202) rotate(90)"><title>Metro curve 1.90</title><path d="M2.13 489.68 L-2.13 489.68 L-2.13 536.31 A8.5038 8.5038 -180 0 0 6.38 544.81 L25.51 544.81 L25.51 540.56 L6.38 540.56 A4.2519 4.2519 0 0 1 2.13 536.31 L2.13 489.68 Z" class="st3"/></g><g id="group17-53" transform="translate(-248.717,-263.492) rotate(-45)"><title>Station.17</title><g id="shape18-54"><title>Sheet.18</title><path d="M0 528.51 A14.1732 14.1732 0 0 1 28.35 528.51 A14.1732 14.1732 0 1 1 0 528.51 Z" class="st4"/></g><g id="shape19-56" transform="translate(4.25197,-4.25197)"><title>Sheet.19</title><path d="M0 532.56 A9.92126 10.1295 0 0 1 19.84 532.56 A9.92126 10.1295 0 1 1 0 532.56 Z" class="st5"/></g><g id="shape20-58" transform="translate(28.3465,0)"><title>Sheet.20</title><desc>In Sovereign clouds</desc><rect width="91.935" height="28.346" x="0" y="514.34" class="st6"/><text x="2.79" y="531.51" class="st7">In Sovereign clouds</text></g></g><g id="shape91-61" transform="translate(359.005,-322.21)"><title>Metro curve 1.91</title><path d="M2.13 517.18 L-2.13 517.18 L-2.13 536.31 A8.5038 8.5038 -180 0 0 6.38 544.81 L12.71 544.81 L12.71 540.56 L6.38 540.56 A4.2519 4.2519 0 0 1 2.13 536.31 L2.13 517.18 Z" class="st3"/></g><g id="shape93-63" transform="translate(525.196,-243.202) rotate(30.92)"><title>Metro line.93</title><rect width="9.394" height="4.252" x="0" y="538.435" class="st3"/></g><g id="group94-65" transform="translate(-93.4628,-143.156) rotate(-45)"><title>Station</title><g id="shape95-66"><title>Sheet.95</title><path d="M0 528.51 A14.1732 14.1732 0 0 1 28.35 528.51 A14.1732 14.1732 0 1 1 0 528.51 Z" class="st4"/></g><g id="shape96-68" transform="translate(4.25197,-4.25197)"><title>Sheet.96</title><path d="M0 532.77 A9.92126 9.92126 0 0 1 19.84 532.77 A9.92126 9.92126 0 1 1 0 532.77 Z" class="st5"/></g><g id="shape97-70" transform="translate(28.3465,0)"><title>Sheet.97</title><desc>token cache serialization</desc><rect width="58.639" height="28.346" x="0" y="514.34" class="st6"/><text x="2.79" y="525.51" class="st7">token cache<tspan x="3.2" class="st8" dy="1.2em">serialization</tspan></text></g></g><g id="shape98-74" transform="translate(414.624,763.254) rotate(180)"><title>Metro curve 1.98</title><path d="M2.13 442.62 L-2.13 442.62 L-2.13 536.31 A8.5038 8.5038 -180 0 0 6.38 544.81 L79.44 544.81 L79.44 540.56 L6.38 540.56 A4.2519 4.2519 0 0 1 2.13 536.31 L2.13 442.62 Z" class="st3"/></g><g id="shape99-76" transform="translate(414.455,-279.505)"><title>Metro curve 1.99</title><path d="M2.13 514.34 L-2.13 514.34 L-2.13 536.31 A8.5038 8.5038 -180 0 0 6.38 544.81 L39.64 544.81 L39.64 540.56 L6.38 540.56 A4.2519 4.2519 0 0 1 2.13 536.31 L2.13 514.34 Z" class="st3"/></g><g id="group51-78" transform="translate(4.21678,-143.156) rotate(-45)"><title>Station.51</title><g id="shape52-79"><title>Sheet.52</title><path d="M0 528.51 A14.1732 14.1732 0 0 1 28.35 528.51 A14.1732 14.1732 0 1 1 0 528.51 Z" class="st4"/></g><g id="shape53-81" transform="translate(4.25197,-4.25197)"><title>Sheet.53</title><path d="M0 532.77 A9.92126 9.92126 0 0 1 19.84 532.77 A9.92126 9.92126 0 1 1 0 532.77 Z" class="st5"/></g><g id="shape54-83" transform="translate(28.3465,0)"><title>Sheet.54</title><desc>Call several Microsoft APIs</desc><rect width="69.249" height="28.346" x="0" y="514.34" class="st6"/><text x="9.95" y="525.51" class="st7">Call several<tspan x="2.79" class="st8" dy="1.2em">Microsoft APIs</tspan></text></g></g><g id="group43-87" transform="translate(-136.304,-143.156) rotate(-45)"><title>Station.43</title><g id="shape44-88"><title>Sheet.44</title><path d="M0 528.51 A14.1732 14.1732 0 0 1 28.35 528.51 A14.1732 14.1732 0 1 1 0 528.51 Z" class="st4"/></g><g id="shape45-90" transform="translate(4.25197,-4.25197)"><title>Sheet.45</title><path d="M0 532.77 A9.92126 9.92126 0 0 1 19.84 532.77 A9.92126 9.92126 0 1 1 0 532.77 Z" class="st5"/></g><g id="shape46-92" transform="translate(28.3465,0)"><title>Sheet.46</title><desc>Call Microsoft Graph</desc><rect width="77.258" height="28.346" x="0" y="514.34" class="st6"/><text x="30.57" y="525.51" class="st7">Call <tspan x="2.79" class="st8" dy="1.2em">Microsoft Graph</tspan></text></g></g><g id="shape107-96" transform="translate(-128.204,382.237) rotate(-90)"><title>Metro curve 1.107</title><path d="M2.13 152.34 L-2.13 152.34 L-2.13 536.31 A8.5038 8.5038 -180 0 0 6.38 544.81 L69.45 544.81 L69.45 540.56 L6.38 540.56 A4.2519 4.2519 0 0 1 2.13 536.31 L2.13 152.34 Z" class="st3"/></g><g id="group21-98" transform="translate(-358.276,17.4868) rotate(-45)"><title>Station.21</title><g id="shape22-99"><title>Sheet.22</title><path d="M0 528.51 A14.1732 14.1732 0 0 1 28.35 528.51 A14.1732 14.1732 0 1 1 0 528.51 Z" class="st4"/></g><g id="shape23-101" transform="translate(4.25197,-4.25197)"><title>Sheet.23</title><path d="M0 532.77 A9.92126 9.92126 0 0 1 19.84 532.77 A9.92126 9.92126 0 1 1 0 532.77 Z" class="st5"/></g><g id="shape24-103" transform="translate(28.3465,0)"><title>Sheet.24</title><desc>With social identities</desc><rect width="96.814" height="28.346" x="0" y="514.34" class="st6"/><text x="2.79" y="531.51" class="st7">With social identities</text></g></g><g id="shape108-106" transform="translate(957.218,263.3) rotate(90)"><title>Metro curve 1.108</title><path d="M2.13 298.91 L-2.13 298.91 L-2.13 536.31 A8.5038 8.5038 -180 0 0 6.38 544.81 L25.51 544.81 L25.51 540.56 L6.38 540.56 A4.2519 4.2519 0 0 1 2.13 536.31 L2.13 298.91 Z" class="st3"/></g><g id="group25-108" transform="translate(71.8305,-100.512) rotate(-45)"><title>Station.25</title><g id="shape26-109"><title>Sheet.26</title><path d="M0 528.51 A14.1732 14.1732 0 0 1 28.35 528.51 A14.1732 14.1732 0 1 1 0 528.51 Z" class="st4"/></g><g id="shape27-111" transform="translate(4.25197,-4.25197)"><title>Sheet.27</title><path d="M0 532.77 A9.92126 9.92126 0 0 1 19.84 532.77 A9.92126 9.92126 0 1 1 0 532.77 Z" class="st5"/></g><g id="shape28-113" transform="translate(28.3465,0)"><title>Sheet.28</title><desc>Call your own API</desc><rect width="47.013" height="28.346" x="0" y="514.34" class="st6"/><text x="4.16" y="525.51" class="st7">Call your <tspan x="5.41" class="st8" dy="1.2em">own API</tspan></text></g></g><g id="group114-117" transform="translate(156.87,-100.512) rotate(-45)"><title>Station.114</title><g id="shape115-118"><title>Sheet.115</title><path d="M0 528.51 A14.1732 14.1732 0 0 1 28.35 528.51 A14.1732 14.1732 0 1 1 0 528.51 Z" class="st4"/></g><g id="shape116-120" transform="translate(4.25197,-4.25197)"><title>Sheet.116</title><path d="M0 532.77 A9.92126 9.92126 0 0 1 19.84 532.77 A9.92126 9.92126 0 1 1 0 532.77 Z" class="st5"/></g><g id="shape117-122" transform="translate(28.3465,0)"><title>Sheet.117</title><desc>Authorization</desc><rect width="65.432" height="28.346" x="0" y="514.34" class="st6"/><text x="2.79" y="531.51" class="st7">Authorization</text></g></g><g id="group118-125" transform="translate(438.56,-295.096)"><title>Repairs</title><g id="shape119-126" transform="translate(0.0384632,0)"><title>Sheet.119</title><path d="M33.94 485.99 L33.94 522.41 L8 522.41 L11.63 542.69 L0 522.41 L0 485.99 L33.94 485.99 Z" class="st9"/></g><g id="shape120-128" transform="translate(5.03654,-26.5591)"><title>Sheet.120</title><path d="M22.17 540.67 C22.84 540 22.87 538.88 22.23 538.17 C21.6 537.46 20.54 537.43 19.87 538.1 C19.2 538.78 19.18 539.9 19.81 540.61 C20.45 541.32 21.5 541.35 22.17 540.67 ZM23.14 537.25 C24.25 538.49 24.21 540.46 23.03 541.64 C21.87 542.82 20.02 542.77 18.9 541.52 C18.16 540.69 17.94 539.54 18.22 538.51 L12.21 531.79 L14.26 529.58 L20.34 536.37 C21.32 536.12 22.4 536.42 23.14 537.25 ZM8.29 528.63 L3.61 527.01 L2.68 522.33 L3.33 521.68 L5.74 524.37 L7.68 522.42 L5.27 519.72 L5.91 519.06 L10.26 520.29 L11.55 525.33 L10.98 525.91 L12.66 527.79 L10.55 529.94 L8.86 528.05 L8.29 528.63 ZM10.22 534.74 C10.48 534.46 10.49 534.01 10.23 533.73 C9.97 533.45 9.55 533.45 9.28 533.72 L3.49 539.73 C3.23 540 3.22 540.45 3.48 540.73 C3.74 541.01 4.16 541.02 4.42 540.74 L10.22 534.74 ZM2.73 538.9 L8.53 532.89 C8.79 532.62 8.79 532.17 8.54 531.89 C8.28 531.61 7.86 531.61 7.59 531.88 L1.8 537.88 C1.54 538.16 1.53 538.61 1.79 538.89 C2.05 539.17 2.47 539.17 2.73 538.9 ZM11.19 531.86 L11.6 532.31 C12.25 533.01 11.99 534.38 11.34 535.06 L4.47 542.18 C3.81 542.87 2.75 542.85 2.11 542.15 L0.48 540.38 C-0.17 539.67 -0.16 538.55 0.5 537.87 L7.37 530.75 C8.03 530.06 9.32 529.83 9.97 530.53 L10.38 530.98 L17.46 523.63 L18.2 521.38 L21.89 518.55 L23.17 519.94 L20.41 523.79 L18.28 524.52 L11.19 531.86 Z" class="st5"/></g><g id="shape121-130" transform="translate(0,-20.5653)"><title>Sheet.121</title></g><g id="shape122-132" transform="translate(5.03654,-26.5591)"><title>Sheet.122</title></g></g><g id="group123-135" transform="translate(526.434,-306.839)"><title>Repairs.123</title><g id="shape124-136" transform="translate(0.0384632,0)"><title>Sheet.124</title><path d="M33.94 485.99 L33.94 522.41 L8 522.41 L11.63 542.69 L0 522.41 L0 485.99 L33.94 485.99 Z" class="st9"/></g><g id="shape125-138" transform="translate(5.03654,-26.5591)"><title>Sheet.125</title><path d="M22.17 540.67 C22.84 540 22.87 538.88 22.23 538.17 C21.6 537.46 20.54 537.43 19.87 538.1 C19.2 538.78 19.18 539.9 19.81 540.61 C20.45 541.32 21.5 541.35 22.17 540.67 ZM23.14 537.25 C24.25 538.49 24.21 540.46 23.03 541.64 C21.87 542.82 20.02 542.77 18.9 541.52 C18.16 540.69 17.94 539.54 18.22 538.51 L12.21 531.79 L14.26 529.58 L20.34 536.37 C21.32 536.12 22.4 536.42 23.14 537.25 ZM8.29 528.63 L3.61 527.01 L2.68 522.33 L3.33 521.68 L5.74 524.37 L7.68 522.42 L5.27 519.72 L5.91 519.06 L10.26 520.29 L11.55 525.33 L10.98 525.91 L12.66 527.79 L10.55 529.94 L8.86 528.05 L8.29 528.63 ZM10.22 534.74 C10.48 534.46 10.49 534.01 10.23 533.73 C9.97 533.45 9.55 533.45 9.28 533.72 L3.49 539.73 C3.23 540 3.22 540.45 3.48 540.73 C3.74 541.01 4.16 541.02 4.42 540.74 L10.22 534.74 ZM2.73 538.9 L8.53 532.89 C8.79 532.62 8.79 532.17 8.54 531.89 C8.28 531.61 7.86 531.61 7.59 531.88 L1.8 537.88 C1.54 538.16 1.53 538.61 1.79 538.89 C2.05 539.17 2.47 539.17 2.73 538.9 ZM11.19 531.86 L11.6 532.31 C12.25 533.01 11.99 534.38 11.34 535.06 L4.47 542.18 C3.81 542.87 2.75 542.85 2.11 542.15 L0.48 540.38 C-0.17 539.67 -0.16 538.55 0.5 537.87 L7.37 530.75 C8.03 530.06 9.32 529.83 9.97 530.53 L10.38 530.98 L17.46 523.63 L18.2 521.38 L21.89 518.55 L23.17 519.94 L20.41 523.79 L18.28 524.52 L11.19 531.86 Z" class="st5"/></g><g id="shape126-140" transform="translate(0,-20.5653)"><title>Sheet.126</title></g><g id="shape127-142" transform="translate(5.03654,-26.5591)"><title>Sheet.127</title></g></g><g id="group128-145" transform="translate(11.2884,-170.324)"><title>Repairs.128</title><g id="shape129-146" transform="translate(0.0384632,0)"><title>Sheet.129</title><path d="M33.94 485.99 L33.94 522.41 L8 522.41 L11.63 542.69 L0 522.41 L0 485.99 L33.94 485.99 Z" class="st9"/></g><g id="shape130-148" transform="translate(5.03654,-26.5591)"><title>Sheet.130</title><path d="M22.17 540.67 C22.84 540 22.87 538.88 22.23 538.17 C21.6 537.46 20.54 537.43 19.87 538.1 C19.2 538.78 19.18 539.9 19.81 540.61 C20.45 541.32 21.5 541.35 22.17 540.67 ZM23.14 537.25 C24.25 538.49 24.21 540.46 23.03 541.64 C21.87 542.82 20.02 542.77 18.9 541.52 C18.16 540.69 17.94 539.54 18.22 538.51 L12.21 531.79 L14.26 529.58 L20.34 536.37 C21.32 536.12 22.4 536.42 23.14 537.25 ZM8.29 528.63 L3.61 527.01 L2.68 522.33 L3.33 521.68 L5.74 524.37 L7.68 522.42 L5.27 519.72 L5.91 519.06 L10.26 520.29 L11.55 525.33 L10.98 525.91 L12.66 527.79 L10.55 529.94 L8.86 528.05 L8.29 528.63 ZM10.22 534.74 C10.48 534.46 10.49 534.01 10.23 533.73 C9.97 533.45 9.55 533.45 9.28 533.72 L3.49 539.73 C3.23 540 3.22 540.45 3.48 540.73 C3.74 541.01 4.16 541.02 4.42 540.74 L10.22 534.74 ZM2.73 538.9 L8.53 532.89 C8.79 532.62 8.79 532.17 8.54 531.89 C8.28 531.61 7.86 531.61 7.59 531.88 L1.8 537.88 C1.54 538.16 1.53 538.61 1.79 538.89 C2.05 539.17 2.47 539.17 2.73 538.9 ZM11.19 531.86 L11.6 532.31 C12.25 533.01 11.99 534.38 11.34 535.06 L4.47 542.18 C3.81 542.87 2.75 542.85 2.11 542.15 L0.48 540.38 C-0.17 539.67 -0.16 538.55 0.5 537.87 L7.37 530.75 C8.03 530.06 9.32 529.83 9.97 530.53 L10.38 530.98 L17.46 523.63 L18.2 521.38 L21.89 518.55 L23.17 519.94 L20.41 523.79 L18.28 524.52 L11.19 531.86 Z" class="st5"/></g><g id="shape131-150" transform="translate(0,-20.5653)"><title>Sheet.131</title></g><g id="shape132-152" transform="translate(5.03654,-26.5591)"><title>Sheet.132</title></g></g><g id="group143-155" transform="translate(268.482,-99.0947) rotate(-45)"><title>Station.143</title><g id="shape144-156"><title>Sheet.144</title><path d="M0 528.51 A14.1732 14.1732 0 0 1 28.35 528.51 A14.1732 14.1732 0 1 1 0 528.51 Z" class="st4"/></g><g id="shape145-158" transform="translate(4.25197,-4.25197)"><title>Sheet.145</title><path d="M0 532.77 A9.92126 9.92126 0 0 1 19.84 532.77 A9.92126 9.92126 0 1 1 0 532.77 Z" class="st5"/></g><g id="shape146-160" transform="translate(28.3465,0)"><title>Sheet.146</title><desc>Deployment</desc><rect width="59.709" height="28.346" x="0" y="514.34" class="st6"/><text x="2.79" y="531.51" class="st7">Deployment</text></g></g><g id="group147-163" transform="translate(120.847,-458.082)"><title>Repairs.147</title><g id="shape148-164" transform="translate(0.0384632,0)"><title>Sheet.148</title><path d="M33.94 485.99 L33.94 522.41 L8 522.41 L11.63 542.69 L0 522.41 L0 485.99 L33.94 485.99 Z" class="st9"/></g><g id="shape149-166" transform="translate(5.03654,-26.5591)"><title>Sheet.149</title><path d="M22.17 540.67 C22.84 540 22.87 538.88 22.23 538.17 C21.6 537.46 20.54 537.43 19.87 538.1 C19.2 538.78 19.18 539.9 19.81 540.61 C20.45 541.32 21.5 541.35 22.17 540.67 ZM23.14 537.25 C24.25 538.49 24.21 540.46 23.03 541.64 C21.87 542.82 20.02 542.77 18.9 541.52 C18.16 540.69 17.94 539.54 18.22 538.51 L12.21 531.79 L14.26 529.58 L20.34 536.37 C21.32 536.12 22.4 536.42 23.14 537.25 ZM8.29 528.63 L3.61 527.01 L2.68 522.33 L3.33 521.68 L5.74 524.37 L7.68 522.42 L5.27 519.72 L5.91 519.06 L10.26 520.29 L11.55 525.33 L10.98 525.91 L12.66 527.79 L10.55 529.94 L8.86 528.05 L8.29 528.63 ZM10.22 534.74 C10.48 534.46 10.49 534.01 10.23 533.73 C9.97 533.45 9.55 533.45 9.28 533.72 L3.49 539.73 C3.23 540 3.22 540.45 3.48 540.73 C3.74 541.01 4.16 541.02 4.42 540.74 L10.22 534.74 ZM2.73 538.9 L8.53 532.89 C8.79 532.62 8.79 532.17 8.54 531.89 C8.28 531.61 7.86 531.61 7.59 531.88 L1.8 537.88 C1.54 538.16 1.53 538.61 1.79 538.89 C2.05 539.17 2.47 539.17 2.73 538.9 ZM11.19 531.86 L11.6 532.31 C12.25 533.01 11.99 534.38 11.34 535.06 L4.47 542.18 C3.81 542.87 2.75 542.85 2.11 542.15 L0.48 540.38 C-0.17 539.67 -0.16 538.55 0.5 537.87 L7.37 530.75 C8.03 530.06 9.32 529.83 9.97 530.53 L10.38 530.98 L17.46 523.63 L18.2 521.38 L21.89 518.55 L23.17 519.94 L20.41 523.79 L18.28 524.52 L11.19 531.86 Z" class="st5"/></g><g id="shape150-168" transform="translate(0,-20.5653)"><title>Sheet.150</title></g><g id="shape151-170" transform="translate(5.03654,-26.5591)"><title>Sheet.151</title></g></g><g id="group152-173" transform="translate(-126.827,-263.315) rotate(-45)"><title>Station.152</title><g id="shape153-174"><title>Sheet.153</title><path d="M0 528.51 A14.1732 14.1732 0 0 1 28.35 528.51 A14.1732 14.1732 0 1 1 0 528.51 Z" class="st4"/></g><g id="shape154-176" transform="translate(4.25197,-4.25197)"><title>Sheet.154</title><path d="M0 532.77 A9.92126 9.92126 0 0 1 19.84 532.77 A9.92126 9.92126 0 1 1 0 532.77 Z" class="st5"/></g><g id="shape155-178" transform="translate(28.3465,0)"><title>Sheet.155</title><desc>Call Microsoft Graph (Sovereign)</desc><rect width="91.105" height="28.346" x="0" y="514.34" class="st6"/><text x="3.68" y="525.51" class="st10">Call Microsoft Graph <tspan x="22.48" class="st8" dy="1.2em">(Sovereign)</tspan></text></g></g><g id="shape160-182" transform="translate(233.5,-126.328)"><title>Sheet.160</title><desc>Call Web APIs</desc><rect width="271.442" height="415.276" x="0" y="127.411" class="st1"/><text x="4" y="142.21" class="st2">Call Web APIs</text></g><g id="shape161-185" transform="translate(510.269,-127.036)"><title>Sheet.161</title><desc>Advanced aspects</desc><rect width="201.602" height="415.276" x="0" y="127.411" class="st1"/><text x="4" y="142.21" class="st2">Advanced aspects</text></g></g></svg>